<svg id="icon_telegram" xmlns="http://www.w3.org/2000/svg" width="53" height="54" viewBox="0 0 53 54">
  <rect id="Rechteck_13261" data-name="Rechteck 13261" width="53" height="54" rx="4" fill="none"/>
  <path id="Pfad_96703" data-name="Pfad 96703" d="M32.576,10.934a1.606,1.606,0,0,0-2.172-1.8L7.584,19.151a1.016,1.016,0,0,0,.091,1.877l4.706,1.5a3.034,3.034,0,0,0,2.655-.4l10.611-7.331c.32-.221.669.234.4.516L18.4,23.182a1.714,1.714,0,0,0,.3,2.617l8.551,5.362A1.569,1.569,0,0,0,29.625,30Z" transform="translate(6.701 6.801)" fill="#fff"/>
</svg>
