<svg id="icon_discord" xmlns="http://www.w3.org/2000/svg" width="53" height="54" viewBox="0 0 53 54">
  <rect id="Rechteck_13261" data-name="Rechteck 13261" width="53" height="54" rx="4" fill="none"/>
  <g id="discord-icon-svgrepo-com" transform="translate(12.637 16.269)">
    <path id="Pfad_96702" data-name="Pfad 96702" d="M23.486,1.8A22.581,22.581,0,0,0,17.766,0a16.787,16.787,0,0,0-.733,1.521,21,21,0,0,0-6.339,0A16.261,16.261,0,0,0,9.953,0,22.506,22.506,0,0,0,4.228,1.8,23.99,23.99,0,0,0,.118,17.865,22.87,22.87,0,0,0,7.133,21.46a17.451,17.451,0,0,0,1.5-2.475A14.77,14.77,0,0,1,6.27,17.834c.2-.147.393-.3.58-.459a16.167,16.167,0,0,0,14.027,0c.19.158.384.312.58.459a14.73,14.73,0,0,1-2.37,1.154,17.365,17.365,0,0,0,1.5,2.475,22.824,22.824,0,0,0,7.02-3.6A23.966,23.966,0,0,0,23.486,1.8ZM9.257,14.631A2.691,2.691,0,0,1,6.765,11.8,2.677,2.677,0,0,1,9.257,8.958,2.66,2.66,0,0,1,11.75,11.8,2.674,2.674,0,0,1,9.257,14.631Zm9.211,0A2.691,2.691,0,0,1,15.976,11.8a2.677,2.677,0,0,1,2.493-2.838A2.66,2.66,0,0,1,20.961,11.8,2.675,2.675,0,0,1,18.469,14.631Z" transform="translate(0)" fill="#fff"/>
  </g>
</svg>
