<svg id="icon_linkedin" xmlns="http://www.w3.org/2000/svg" width="53" height="54" viewBox="0 0 53 54">
  <rect id="Rechteck_13261" data-name="Rechteck 13261" width="53" height="54" rx="4" fill="none"/>
  <g id="LinkedIn_icon" transform="translate(13.138 12.638)">
    <path id="Pfad_96701" data-name="Pfad 96701" d="M32.172,32.172H27.616V24.412c0-2.127-.808-3.316-2.492-3.316-1.832,0-2.789,1.237-2.789,3.316v7.759h-4.39V17.391h4.39v1.991a5.157,5.157,0,0,1,4.457-2.443c3.135,0,5.38,1.915,5.38,5.874ZM12.707,15.455a2.728,2.728,0,1,1,2.707-2.728A2.717,2.717,0,0,1,12.707,15.455ZM10.44,32.172h4.578V17.391H10.44Z" transform="translate(-7.723 -7.723)" fill="#fff" fill-rule="evenodd"/>
  </g>
</svg>
