<svg xmlns="http://www.w3.org/2000/svg" xmlns:xlink="http://www.w3.org/1999/xlink" width="181.033" height="29.431" viewBox="0 0 181.033 29.431">
  <defs>
    <clipPath id="clip-path">
      <rect id="Rechteck_13366" data-name="Rechteck 13366" width="128.397" height="18.655" fill="#fff"/>
    </clipPath>
  </defs>
  <g id="img_logo_metagraphs-ai" transform="translate(-472.383 -800.245)">
    <g id="Gruppe_38733" data-name="Gruppe 38733" transform="translate(525.019 808.177)">
      <path id="Pfad_96559" data-name="Pfad 96559" d="M12.751,5.621,7.1,15.5,1.444,5.621H0V19.333H1.4V8.2l5.287,9.171h.834L12.791,8.2V19.333h1.4V5.621Z" transform="translate(0 -5.212)" fill="#fff"/>
      <g id="Gruppe_38732" data-name="Gruppe 38732">
        <g id="Gruppe_38731" data-name="Gruppe 38731" clip-path="url(#clip-path)">
          <path id="Pfad_96560" data-name="Pfad 96560" d="M236.885,57a5.145,5.145,0,0,1-3.823-1.637,5.564,5.564,0,0,1-1.108-1.759,5.719,5.719,0,0,1-.4-2.135,5.589,5.589,0,0,1,.4-2.1,5.324,5.324,0,0,1,2.786-2.908,5.167,5.167,0,0,1,5.908,1.19,5.585,5.585,0,0,1,1.464,3.8q0,.163-.01.325a1.04,1.04,0,0,1-.03.224h-9.049a4.474,4.474,0,0,0,1.251,2.827,3.742,3.742,0,0,0,1.2.824,3.618,3.618,0,0,0,1.454.295,3.826,3.826,0,0,0,1.037-.142,4.107,4.107,0,0,0,.935-.386,3.277,3.277,0,0,0,.763-.6,2.667,2.667,0,0,0,.519-.783l1.2.325a3.522,3.522,0,0,1-.691,1.068,4.82,4.82,0,0,1-1.037.834,5.076,5.076,0,0,1-1.3.549,5.568,5.568,0,0,1-1.464.193m3.9-6.06a4.25,4.25,0,0,0-1.251-2.766,3.757,3.757,0,0,0-1.21-.793,3.907,3.907,0,0,0-2.928,0,3.754,3.754,0,0,0-1.21.793,3.9,3.9,0,0,0-.834,1.22,4.616,4.616,0,0,0-.376,1.546Z" transform="translate(-214.74 -42.678)" fill="#fff"/>
          <path id="Pfad_96561" data-name="Pfad 96561" d="M390.5,22.74V13.211h-1.9v-1.1h1.9V9.26h1.383v2.853h2.949v1.1h-2.949V22.74Z" transform="translate(-360.375 -8.587)" fill="#fff"/>
          <path id="Pfad_96562" data-name="Pfad 96562" d="M489.153,57a4.163,4.163,0,0,1-1.485-.254,3.438,3.438,0,0,1-1.149-.7,3.192,3.192,0,0,1-.742-1.037,3,3,0,0,1-.264-1.24,2.747,2.747,0,0,1,.325-1.332,3.064,3.064,0,0,1,.915-1.027,4.466,4.466,0,0,1,1.413-.661,6.658,6.658,0,0,1,1.82-.234,9.682,9.682,0,0,1,1.627.142,7.162,7.162,0,0,1,1.484.407v-.956a3.053,3.053,0,0,0-.8-2.227,2.887,2.887,0,0,0-2.166-.824,4.692,4.692,0,0,0-1.7.325,8.135,8.135,0,0,0-1.718.935l-.488-.915a9.213,9.213,0,0,1,2.013-1.037,6.048,6.048,0,0,1,2.034-.346,4.193,4.193,0,0,1,3.071,1.119,4.135,4.135,0,0,1,1.139,3.091v6.6h-1.4l.016-1.592a8.6,8.6,0,0,1-1.656,1.245,5.431,5.431,0,0,1-2.288.519m.346-1.057a4.5,4.5,0,0,0,1.82-.4,3.56,3.56,0,0,0,1.434-1.088,2.165,2.165,0,0,0,.244-.4.93.93,0,0,0,.1-.4V51.938a8.447,8.447,0,0,0-1.444-.407,7.888,7.888,0,0,0-1.464-.142,4.363,4.363,0,0,0-2.41.6,1.876,1.876,0,0,0-.925,1.657,2.223,2.223,0,0,0,.163.834,2.1,2.1,0,0,0,.5.732,2.6,2.6,0,0,0,.824.529,3,3,0,0,0,1.159.2" transform="translate(-450.252 -42.678)" fill="#fff"/>
          <path id="Pfad_96563" data-name="Pfad 96563" d="M917.153,57a4.163,4.163,0,0,1-1.484-.254,3.437,3.437,0,0,1-1.149-.7,3.193,3.193,0,0,1-.742-1.037,3,3,0,0,1-.264-1.24,2.747,2.747,0,0,1,.325-1.332,3.063,3.063,0,0,1,.915-1.027,4.467,4.467,0,0,1,1.413-.661,6.658,6.658,0,0,1,1.82-.234,9.682,9.682,0,0,1,1.627.142,7.159,7.159,0,0,1,1.484.407v-.956a3.053,3.053,0,0,0-.8-2.227,2.887,2.887,0,0,0-2.166-.824,4.691,4.691,0,0,0-1.7.325,8.138,8.138,0,0,0-1.718.935l-.488-.915a9.217,9.217,0,0,1,2.013-1.037,6.048,6.048,0,0,1,2.034-.346,4.194,4.194,0,0,1,3.071,1.119,4.136,4.136,0,0,1,1.139,3.091v6.6h-1.4l.016-1.592a8.6,8.6,0,0,1-1.656,1.245,5.432,5.432,0,0,1-2.288.519m.346-1.057a4.5,4.5,0,0,0,1.82-.4,3.56,3.56,0,0,0,1.434-1.088,2.165,2.165,0,0,0,.244-.4.93.93,0,0,0,.1-.4V51.938a8.441,8.441,0,0,0-1.444-.407,7.887,7.887,0,0,0-1.464-.142,4.363,4.363,0,0,0-2.41.6,1.876,1.876,0,0,0-.925,1.657,2.223,2.223,0,0,0,.163.834,2.1,2.1,0,0,0,.5.732,2.6,2.6,0,0,0,.824.529,3,3,0,0,0,1.159.2" transform="translate(-847.167 -42.678)" fill="#fff"/>
          <path id="Pfad_96564" data-name="Pfad 96564" d="M1588.153,57a4.163,4.163,0,0,1-1.484-.254,3.432,3.432,0,0,1-1.149-.7,3.191,3.191,0,0,1-.742-1.037,3,3,0,0,1-.264-1.24,2.749,2.749,0,0,1,.325-1.332,3.066,3.066,0,0,1,.916-1.027,4.464,4.464,0,0,1,1.413-.661,6.659,6.659,0,0,1,1.82-.234,9.685,9.685,0,0,1,1.627.142,7.168,7.168,0,0,1,1.484.407v-.956a3.052,3.052,0,0,0-.8-2.227,2.886,2.886,0,0,0-2.166-.824,4.691,4.691,0,0,0-1.7.325,8.134,8.134,0,0,0-1.719.935l-.488-.915a9.2,9.2,0,0,1,2.013-1.037,6.047,6.047,0,0,1,2.033-.346,4.193,4.193,0,0,1,3.071,1.119,4.136,4.136,0,0,1,1.139,3.091v6.6h-1.4l.016-1.592a8.6,8.6,0,0,1-1.656,1.245,5.429,5.429,0,0,1-2.288.519m.346-1.057a4.5,4.5,0,0,0,1.82-.4,3.561,3.561,0,0,0,1.434-1.088,2.176,2.176,0,0,0,.244-.4.931.931,0,0,0,.1-.4V51.938a8.449,8.449,0,0,0-1.444-.407,7.886,7.886,0,0,0-1.464-.142,4.363,4.363,0,0,0-2.41.6,1.876,1.876,0,0,0-.925,1.657,2.227,2.227,0,0,0,.162.834,2.1,2.1,0,0,0,.5.732,2.6,2.6,0,0,0,.823.529,3,3,0,0,0,1.159.2" transform="translate(-1469.434 -42.678)" fill="#fff"/>
          <path id="Pfad_96565" data-name="Pfad 96565" d="M646.152,56.941a4.375,4.375,0,0,1-2-.458,5.161,5.161,0,0,1-1.566-1.21,5.536,5.536,0,0,1-1.027-1.729,5.689,5.689,0,0,1-.366-2.013,6.265,6.265,0,0,1,.356-2.1,5.412,5.412,0,0,1,1.007-1.759,4.914,4.914,0,0,1,1.556-1.2,4.459,4.459,0,0,1,2-.447,4.079,4.079,0,0,1,2.359.681,6.546,6.546,0,0,1,1.708,1.718V46.2h1.241V56.84A4.333,4.333,0,0,1,651,58.782a4.179,4.179,0,0,1-1.119,1.413,4.757,4.757,0,0,1-1.657.854,7.021,7.021,0,0,1-2.013.285,5.784,5.784,0,0,1-2.928-.651,5.2,5.2,0,0,1-1.81-1.749l.854-.671A3.81,3.81,0,0,0,644,59.758a5.236,5.236,0,0,0,2.217.478,5.036,5.036,0,0,0,1.474-.214,3.6,3.6,0,0,0,1.22-.63,2.974,2.974,0,0,0,.824-1.057,3.44,3.44,0,0,0,.305-1.495V54.745a4.6,4.6,0,0,1-1.678,1.607,4.429,4.429,0,0,1-2.206.59m.386-1.159a3.353,3.353,0,0,0,1.2-.224,4.011,4.011,0,0,0,1.068-.6,3.93,3.93,0,0,0,.8-.844,2.609,2.609,0,0,0,.427-.956V49.885a3.98,3.98,0,0,0-.62-1.057,4.467,4.467,0,0,0-.885-.834,4.422,4.422,0,0,0-1.047-.549,3.4,3.4,0,0,0-2.715.173,3.855,3.855,0,0,0-1.179.986,4.386,4.386,0,0,0-.742,1.383,4.978,4.978,0,0,0-.254,1.566,4.442,4.442,0,0,0,1.139,2.979,3.9,3.9,0,0,0,1.251.915,3.644,3.644,0,0,0,1.556.336" transform="translate(-594.622 -42.679)" fill="#fff"/>
          <path id="Pfad_96566" data-name="Pfad 96566" d="M828.2,48.982a4.352,4.352,0,0,0-2.44.773,3.9,3.9,0,0,0-1.464,2.013v6.589H822.91V47.762h1.3V50.3a5.571,5.571,0,0,1,1.444-1.861,2.969,2.969,0,0,1,1.932-.742h.346a1.422,1.422,0,0,1,.265.02Z" transform="translate(-763.144 -44.237)" fill="#fff"/>
          <path id="Pfad_96567" data-name="Pfad 96567" d="M1077.257,57a4.234,4.234,0,0,1-2.379-.681,5.379,5.379,0,0,1-1.668-1.718V61.13h-1.383V46.2h1.241v2.054a5.14,5.14,0,0,1,1.688-1.617,4.321,4.321,0,0,1,2.257-.62,4.5,4.5,0,0,1,2.023.458,5.14,5.14,0,0,1,1.6,1.22,5.671,5.671,0,0,1,1.047,1.759,5.771,5.771,0,0,1,.376,2.054,6.409,6.409,0,0,1-.346,2.115,5.392,5.392,0,0,1-.986,1.749,4.735,4.735,0,0,1-1.525,1.19,4.322,4.322,0,0,1-1.942.437m-.386-1.22a3.252,3.252,0,0,0,1.546-.366,3.915,3.915,0,0,0,1.19-.966,4.337,4.337,0,0,0,.762-1.362,4.78,4.78,0,0,0,.265-1.576,4.389,4.389,0,0,0-.305-1.627,4.5,4.5,0,0,0-.834-1.362,3.966,3.966,0,0,0-1.251-.935,3.557,3.557,0,0,0-1.556-.346,3.119,3.119,0,0,0-1.1.214,4.829,4.829,0,0,0-1.078.569,3.75,3.75,0,0,0-.864.834,2.245,2.245,0,0,0-.437,1.007v3.254a4.86,4.86,0,0,0,.62,1.057,4.367,4.367,0,0,0,.854.844,4.026,4.026,0,0,0,1.037.559,3.335,3.335,0,0,0,1.149.2" transform="translate(-993.983 -42.679)" fill="#fff"/>
          <path id="Pfad_96568" data-name="Pfad 96568" d="M1252.932,14.14h-1.383V8.222a4.775,4.775,0,0,0-.62-2.7,2.074,2.074,0,0,0-1.82-.895,3.1,3.1,0,0,0-1.169.234,4.336,4.336,0,0,0-1.088.641,4.393,4.393,0,0,0-.884.956,4.041,4.041,0,0,0-.56,1.2V14.14h-1.383V.021h1.383V5.944a4.954,4.954,0,0,1,1.769-1.891,4.485,4.485,0,0,1,2.4-.691,3.317,3.317,0,0,1,1.556.336,2.757,2.757,0,0,1,1.037.935,4.222,4.222,0,0,1,.58,1.444,8.806,8.806,0,0,1,.183,1.861Z" transform="translate(-1153.675 -0.019)" fill="#fff"/>
          <path id="Pfad_96569" data-name="Pfad 96569" d="M1398.277,57a7.374,7.374,0,0,1-2.42-.407,5.812,5.812,0,0,1-2.034-1.179l.631-.935a6.889,6.889,0,0,0,1.82,1.1,5.341,5.341,0,0,0,1.983.366,3.58,3.58,0,0,0,2.044-.519,1.678,1.678,0,0,0,.763-1.474,1.281,1.281,0,0,0-.2-.742,1.765,1.765,0,0,0-.6-.518,4.693,4.693,0,0,0-1-.4q-.6-.173-1.393-.356-.915-.223-1.586-.447a4.842,4.842,0,0,1-1.108-.508,1.833,1.833,0,0,1-.651-.7,2.287,2.287,0,0,1-.214-1.047,3.011,3.011,0,0,1,.315-1.4,2.862,2.862,0,0,1,.854-1.007,3.881,3.881,0,0,1,1.261-.6,5.643,5.643,0,0,1,1.535-.2,5.948,5.948,0,0,1,2.217.4,4.384,4.384,0,0,1,1.607,1.047l-.671.813a3.724,3.724,0,0,0-1.434-.915,5.137,5.137,0,0,0-1.759-.305,4.379,4.379,0,0,0-1.017.112,2.443,2.443,0,0,0-.824.356,1.749,1.749,0,0,0-.559.62,1.831,1.831,0,0,0-.2.885,1.453,1.453,0,0,0,.142.691,1.212,1.212,0,0,0,.468.458,3.8,3.8,0,0,0,.823.346q.5.153,1.21.315,1.016.244,1.79.488a5.628,5.628,0,0,1,1.291.569,2.245,2.245,0,0,1,.783.793,2.283,2.283,0,0,1,.264,1.139,2.762,2.762,0,0,1-1.119,2.318,4.838,4.838,0,0,1-3.01.854" transform="translate(-1292.594 -42.678)" fill="#fff"/>
          <rect id="Rechteck_13365" data-name="Rechteck 13365" width="1.47" height="1.47" transform="translate(111.74 12.643)" fill="#fff"/>
          <path id="Pfad_96570" data-name="Pfad 96570" d="M1748.858,0h1.383V1.383h-1.383Zm0,3.453h1.383V14.12h-1.383Z" transform="translate(-1621.844)" fill="#fff"/>
        </g>
      </g>
    </g>
    <g id="Gruppe_38734" data-name="Gruppe 38734" transform="translate(472.383 800.245)">
      <path id="Pfad_96443" data-name="Pfad 96443" d="M29.848,23.611l3.564-2.352v4.729ZM8.909,21.239l3.561,2.372L8.909,25.988Zm24.5-8.909V18.5L21.161,26.73l-6.067-4.045L8.909,18.562V12.33L21.161,20.5ZM2.227,23.017V7.873l4.455,2.971V25.988ZM23.168,10.25,33.411,3.419V9.653l-5.57,3.711ZM35.636,3.419,40.091,6.39V23.017l-4.455,2.971ZM3.123,5.8,7.8,2.677,25.832,14.7l-4.671,3.114ZM34.523,0,21.161,8.911,7.8,0,0,5.2v19.01l7.8,5.2,6.682-4.457,6.684,4.457,6.68-4.457,6.72,4.481,7.758-5.223V5.2Z" transform="translate(0 0)" fill="#00cfff"/>
    </g>
  </g>
</svg>
