<svg xmlns="http://www.w3.org/2000/svg" width="88" height="88" viewBox="0 0 88 88">
  <g id="img_hub-logo_nebulon" transform="translate(-53)">
    <circle id="Ellipse_4236" data-name="Ellipse 4236" cx="44" cy="44" r="44" transform="translate(53)" fill="#51646f"/>
    <path id="Pfad_96693" data-name="Pfad 96693" d="M35.354,26.617l-3.8-2.077-2.077-3.8a1.629,1.629,0,0,0-2.212-.648,1.611,1.611,0,0,0-.648.648l-2.077,3.8-3.8,2.077a1.629,1.629,0,0,0-.648,2.212,1.611,1.611,0,0,0,.648.648l3.8,2.077,2.077,3.8A1.629,1.629,0,0,0,28.831,36a1.611,1.611,0,0,0,.648-.648l2.077-3.8,3.8-2.077A1.629,1.629,0,0,0,36,27.265a1.666,1.666,0,0,0-.648-.648ZM29.57,28.923a1.633,1.633,0,0,0-.648.645l-.875,1.6-.875-1.6a1.619,1.619,0,0,0-.648-.645l-1.6-.877,1.6-.875a1.633,1.633,0,0,0,.648-.645l.873-1.6.875,1.6a1.619,1.619,0,0,0,.648.645l1.6.875ZM46.5,9.6a26.091,26.091,0,0,0-37,36.8l.1.1a26.091,26.091,0,0,0,37-36.8l-.1-.1ZM28.048,50.877A22.829,22.829,0,1,1,50.878,28.048,22.83,22.83,0,0,1,28.048,50.877ZM45.17,23.812l-2.881-1.663.86-3.213a4.893,4.893,0,0,0-5.992-5.992l-3.21.862-1.663-2.881a4.891,4.891,0,0,0-8.472,0L22.15,13.807l-3.213-.86a4.893,4.893,0,0,0-5.992,5.992l.862,3.213-2.881,1.663a4.891,4.891,0,0,0,0,8.472l2.881,1.663-.86,3.213a4.892,4.892,0,0,0,5.99,5.992l3.213-.86,1.663,2.881a4.891,4.891,0,0,0,8.472,0l1.663-2.881,3.213.86a4.892,4.892,0,0,0,5.992-5.992l-.862-3.215,2.881-1.663a4.891,4.891,0,0,0,0-8.472Zm-1.631,5.65-3.964,2.289a1.631,1.631,0,0,0-.76,1.835L40,38.006a1.631,1.631,0,0,1-2,2l-4.421-1.185a1.631,1.631,0,0,0-1.835.76l-2.285,3.96a1.631,1.631,0,0,1-2.826,0l-2.289-3.964a1.631,1.631,0,0,0-1.835-.76L18.092,40a1.631,1.631,0,0,1-2-2l1.185-4.421a1.631,1.631,0,0,0-.76-1.835l-3.962-2.285a1.631,1.631,0,0,1,0-2.826l3.964-2.289a1.631,1.631,0,0,0,.76-1.835L16.1,18.092a1.631,1.631,0,0,1,2-2l4.421,1.185a1.631,1.631,0,0,0,1.835-.76l2.285-3.962a1.631,1.631,0,0,1,2.826,0l2.289,3.964a1.631,1.631,0,0,0,1.835.76L38,16.1a1.631,1.631,0,0,1,2,2l-1.185,4.421a1.631,1.631,0,0,0,.76,1.835l3.962,2.285a1.634,1.634,0,0,1,0,2.828Z" transform="translate(68.953 15.952)" fill="#fff"/>
  </g>
</svg>
